<svg xmlns="http://www.w3.org/2000/svg" version="1.1" xmlns:xlink="http://www.w3.org/1999/xlink" xmlns:svgjs="http://svgjs.dev/svgjs" width="100%" height="100%" viewBox="0 0 1000 600"><rect width="1000" height="600" x="0" y="0" fill="none"/><g><circle r="166.66666666666666" cx="332.68032328287757" cy="354.90255731538934" fill="#f4a896" transform="matrix(0.7529500347062907,0,0,0.7529500347062907,0,32.77609946261316)"/><path d="M287.40082394634294 328.796130043107L333.6302589024525 392.16779761166157L316.96844554793597 392.16779761166157L277.1809960958662 338.557375874652L265.6946083835782 348.6243430521516L265.6946083835782 392.16779761166157L251.54407751368728 392.16779761166157L251.54407751368728 279.90255192939446L265.6946083835782 279.90255192939446L265.6946083835782 335.2599527861435Q270.41145200687515 329.90982923194093 275.30299354214606 324.55970567773835Q280.1726978384203 319.20958212353577 285.04240213469444 313.8594585693332L285.04240213469444 313.8594585693332L315.3961643401703 279.90255192939446L331.90511702170966 279.90255192939446L287.40082394634294 328.796130043107ZM367.7400262153685 392.473518957616L333.78311957542974 307.89789232322175L348.56693037622625 307.89789232322175L366.8010249385085 355.85246916007424Q369.159446750157 362.14159399113686 371.0374493038771 367.88478784728085Q372.9372890965939 373.60614446442816 373.8762903734539 378.8034073456535L373.8762903734539 378.8034073456535L374.5095703043595 378.8034073456535Q375.44857158121965 374.87270432623933 377.50127204691364 368.49623053918975Q379.53213527361095 362.14159399113686 381.7376964122822 355.699608487097L381.7376964122822 355.699608487097L398.8799290247272 307.89789232322175L413.8166004985009 307.89789232322175L377.50127204691364 403.8070459969268Q373.0901497695711 415.7520157281463 366.1022332906127 422.82728116309175Q359.09247957265745 429.9025465980373 346.84178849548334 429.9025465980373L346.84178849548334 429.9025465980373Q343.06394614904644 429.9025465980373 340.2251050794696 429.5094762960959Q337.40810124888947 429.1164059941544 335.3554007831954 428.635986736226L335.3554007831954 428.635986736226L335.3554007831954 417.6300182818664Q337.0805426639383 417.95757686681765 339.5263134315737 418.2632982127721Q341.95024696021244 418.59085679772323 344.6362273568121 418.59085679772323L344.6362273568121 418.59085679772323Q351.8643534647348 418.59085679772323 356.34098745906755 414.48545586633514Q360.8176214534003 410.40189217394374 363.35074117702277 403.65418532394955L363.35074117702277 403.65418532394955L367.7400262153685 392.473518957616Z " fill="#358597" transform="matrix(0.7529500347062907,0,0,0.7529500347062907,0,32.77609946261316)"/><path d="M649.9896249530202 365.5783392489829L649.9896249530202 365.5783392489829Q649.9896249530202 379.7574436069951 639.707701324988 387.65545349062467Q629.4050480122219 395.5741930589882 611.9299237815139 395.5741930589882L611.9299237815139 395.5741930589882Q602.9746999764536 395.5741930589882 595.3669056790991 394.2267635512823Q587.7591113817446 392.87933404357653 582.6803386219303 390.4954202991739L582.6803386219303 390.4954202991739L582.6803386219303 377.6637454488675Q588.0493269680196 380.04765919327014 596.0509852753189 381.9962495582601Q604.0319138978844 383.9241102385162 612.531084638798 383.9241102385162L612.531084638798 383.9241102385162Q624.471383045545 383.9241102385162 630.5244509878544 379.3013905428484Q636.5567892454297 374.67867084718074 636.5567892454297 366.7599312788172L636.5567892454297 366.7599312788172Q636.5567892454297 361.5360507258653 634.3179832941646 357.97054495162837Q632.0791773428996 354.38430949265745 626.6479999426084 351.316316152035Q621.1960928575832 348.26905249614634 611.4946004021012 344.82792483031295L611.4946004021012 344.82792483031295Q597.9166569013732 339.89425986363625 590.9722125155047 332.7425186304284Q584.0277681296361 325.57004771248654 584.0277681296361 313.1944259263267L584.0277681296361 313.1944259263267Q584.0277681296361 304.67452550067907 588.3602722390287 298.6421872431037Q592.6927763484214 292.58911930079444 600.3627596999777 289.31382911283254Q608.0534727362678 286.01780924013667 618.0659104627589 286.01780924013667L618.0659104627589 286.01780924013667Q626.8552967899477 286.01780924013667 634.1728755010272 287.6554543341176Q641.4904542121064 289.31382911283254 647.4606034154801 291.98795844351025L647.4606034154801 291.98795844351025L643.273207099225 303.4929334708447Q637.759110959998 301.08829004170815 631.2707196382761 299.45064494772726Q624.7823283165542 297.8129998537463 617.7549651917499 297.8129998537463L617.7549651917499 297.8129998537463Q607.7632571499928 297.8129998537463 602.6844843901785 302.06258522420313Q597.6057116303641 306.31217059465996 597.6057116303641 313.3395337194643L597.6057116303641 313.3395337194643Q597.6057116303641 318.7085220655537 599.8445175816292 322.29475752452464Q602.0833235328944 325.88099298349556 607.1620962927086 328.7002301073108Q612.2408690525228 331.54019691586 620.8851475865742 334.8362167885559L620.8851475865742 334.8362167885559Q630.2964244557811 338.2566147696553 636.7848157775031 342.215984553837Q643.273207099225 346.17535433801885 646.6314160261227 351.68945047724577Q649.9896249530202 357.22427630120666 649.9896249530202 365.5783392489829ZM682.6803377784372 280.6488208940473L682.6803377784372 339.89425986363625Q682.6803377784372 342.29890329277276 682.4523112463639 346.17535433801885Q682.2450143990246 350.0518053832648 682.079176921153 352.891772191814L682.079176921153 352.891772191814L682.6803377784372 352.891772191814Q683.5717142219964 351.68945047724577 685.3751967938489 349.45064452598075Q687.1579496809674 347.2118385747156 689.0236213070216 344.9108435692487Q690.8892929330758 342.58911887904793 692.2367224407817 341.0965815782045L692.2367224407817 341.0965815782045L717.7549643482569 314.0858023698859L733.1363904208373 314.0858023698859L700.7358931816955 348.26905249614634L735.3751963721024 394.0816557581448L719.5584469201093 394.0816557581448L691.7806693766352 356.7682232370601L682.6803377784372 364.68696280542366L682.6803377784372 394.0816557581448L669.7035551349934 394.0816557581448L669.7035551349934 280.6488208940473L682.6803377784372 280.6488208940473ZM769.1023934342161 394.37187134441984L736.8677336729457 314.0858023698859L750.9017302378204 314.0858023698859L768.2110169906568 359.6081900456093Q770.449822941922 365.5783392489829 772.2325758290405 371.03024633400804Q774.0360584008929 376.4614237342992 774.9274348444521 381.39508870097603L774.9274348444521 381.39508870097603L775.5285957017363 381.39508870097603Q776.4199721452956 377.6637454488675 778.3478328255516 371.61067750655826Q780.2964231905415 365.5783392489829 782.3901213486691 359.4630822524718L782.3901213486691 359.4630822524718L798.6629238648088 314.0858023698859L812.842028222821 314.0858023698859L778.3478328255516 405.1305777213326Q774.1811661940304 416.4697152707956 767.526937394437 423.18613312459087Q760.8934382795775 429.90255097838605 749.2433554591055 429.90255097838605L749.2433554591055 429.90255097838605Q745.6778496848685 429.90255097838605 742.9829906694569 429.52941665317525Q740.2881316540452 429.15628232796445 738.3602709737892 428.7002292638178L738.3602709737892 428.7002292638178L738.3602709737892 418.25246815791405Q739.9979160677701 418.5634134289232 742.319640757971 418.85362901519824Q744.6206357634378 419.16457428620726 747.170386985712 419.16457428620726L747.170386985712 419.16457428620726Q754.0319126326447 419.16457428620726 758.2814980031015 415.2673935562273Q762.5310833735584 411.39094251098135 764.9149971179611 404.9854699281951L764.9149971179611 404.9854699281951L769.1023934342161 394.37187134441984ZM901.191944558856 314.0858023698859L901.191944558856 324.22261820478064L881.0426909974702 324.22261820478064L881.0426909974702 394.0816557581448L867.9000708761548 394.0816557581448L867.9000708761548 324.22261820478064L853.8868039960141 324.22261820478064L853.8868039960141 318.10736120826954L867.9000708761548 313.6297493057394L867.9000708761548 309.00702961007164Q867.9000708761548 293.4804957443537 874.7823262078216 286.7018888363566Q881.6438518547543 279.9025522436256 893.8743658477765 279.9025522436256L893.8743658477765 279.9025522436256Q898.6629230213157 279.9025522436256 902.6015631207636 280.731739632983Q906.5609329049453 281.54019733760657 909.4008997134946 282.59741125903724L909.4008997134946 282.59741125903724L905.9597720476613 292.8793348870695Q903.5758583032587 292.1330662366478 900.4456759084343 291.3867975862261Q897.3154935136099 290.64052893580447 894.0194736409142 290.64052893580447L894.0194736409142 290.64052893580447Q887.4688932649904 290.64052893580447 884.2557921312302 295.0559517841328Q881.0426909974702 299.45064494772726 881.0426909974702 308.8619218169341L881.0426909974702 308.8619218169341L881.0426909974702 314.0858023698859L901.191944558856 314.0858023698859ZM928.8038846244585 280.6488208940473L928.8038846244585 394.0816557581448L915.6612645031432 394.0816557581448L915.6612645031432 280.6488208940473L928.8038846244585 280.6488208940473ZM1023.7251110211513 353.9282564285109L1023.7251110211513 353.9282564285109Q1023.7251110211513 373.7872944036215 1013.6504842404584 384.6703788889378Q1003.5758574597655 395.5741930589882 986.4116785000666 395.5741930589882L986.4116785000666 395.5741930589882Q975.8188096010254 395.5741930589882 967.526935707451 390.72344683124714Q959.2557914986105 385.8727006035062 954.4672343250713 376.54434247323496Q949.699406836266 367.21598434296385 949.699406836266 353.9282564285109L949.699406836266 353.9282564285109Q949.699406836266 334.08994813813416 959.6911148780232 323.3312417612214Q969.7035526045142 312.5932650690426 986.8677315642133 312.5932650690426L986.8677315642133 312.5932650690426Q997.7508160495295 312.5932650690426 1006.0426899431039 317.4440112967836Q1014.3345638366783 322.29475752452464 1019.0194725865479 331.4780078616582Q1023.7251110211513 340.64052851405796 1023.7251110211513 353.9282564285109ZM963.277350336994 353.9282564285109L963.277350336994 353.9282564285109Q963.277350336994 368.1073607865231 968.8743652151568 376.39923468009744Q974.4713800933195 384.6703788889378 986.7226237710756 384.6703788889378L986.7226237710756 384.6703788889378Q998.8080299709602 384.6703788889378 1004.4672339033248 376.39923468009744Q1010.1471675204232 368.1073607865231 1010.1471675204232 353.9282564285109L1010.1471675204232 353.9282564285109Q1010.1471675204232 339.7491520704987 1004.4672339033248 331.68530470899765Q998.8080299709602 323.6421870322304 986.5567862932041 323.6421870322304L986.5567862932041 323.6421870322304Q974.3262723001819 323.6421870322304 968.812176160955 331.68530470899765Q963.277350336994 339.7491520704987 963.277350336994 353.9282564285109ZM1081.788957960906 312.5932650690426L1081.788957960906 312.5932650690426Q1084.027763912171 312.5932650690426 1086.6397041886469 312.8212916011159Q1089.2516444651228 313.0285884484553 1091.2002348301125 313.48464151260185L1091.2002348301125 313.48464151260185L1089.5418600513979 325.57004771248654Q1087.6139993711417 325.13472433307385 1085.292274680941 324.82377906206483Q1082.9912796754743 324.53356347578966 1080.8975815173467 324.53356347578966L1080.8975815173467 324.53356347578966Q1074.7823245208356 324.53356347578966 1069.3926064900122 327.8917724026873Q1064.0236181439227 331.24998132958495 1060.8105170101626 337.2823195871603Q1057.6181455611365 343.33538752946964 1057.6181455611365 351.3992348909707L1057.6181455611365 351.3992348909707L1057.6181455611365 394.0816557581448L1044.475525439821 394.0816557581448L1044.475525439821 314.0858023698859L1055.213502132 314.0858023698859L1056.7060394328432 328.7002301073108L1057.3072002901276 328.7002301073108Q1061.1836513353735 322.1496497313871 1067.3196380166187 317.3610925578478Q1073.4348950131298 312.5932650690426 1081.788957960906 312.5932650690426ZM1133.4266026331402 312.73837286218014L1133.4266026331402 312.73837286218014Q1148.0617600552991 312.73837286218014 1155.0683934953695 319.16457512970027Q1162.0957566201737 325.57004771248654 1162.0957566201737 339.6040442773611L1162.0957566201737 339.6040442773611L1162.0957566201737 394.0816557581448L1152.5393719578292 394.0816557581448L1149.989620735555 382.7425182086818L1149.409189563005 382.7425182086818Q1144.185309010053 389.31382826933947 1138.4224566540188 392.44401066416384Q1132.6803339827186 395.5741930589882 1122.543518147824 395.5741930589882L1122.543518147824 395.5741930589882Q1111.6397039777735 395.5741930589882 1104.4672330598319 389.8320703876879Q1097.3154918266239 384.0899477163877 1097.3154918266239 371.83870403863153L1097.3154918266239 371.83870403863153Q1097.3154918266239 359.8984056318844 1106.706039011097 353.41001431016247Q1116.1173158803037 346.92162298844056 1135.6654085844052 346.3204621311564L1135.6654085844052 346.3204621311564L1149.2433520851334 345.86440906700983L1149.2433520851334 341.0965815782045Q1149.2433520851334 331.1048735364474 1144.9315776604747 327.2076928064675Q1140.5990735510823 323.3312417612214 1132.6803339827186 323.3312417612214L1132.6803339827186 323.3312417612214Q1126.41996919307 323.3312417612214 1120.7400355759714 325.19691338727563Q1115.0808316436069 327.06258501332985 1110.1471666769303 329.4464987577325L1110.1471666769303 329.4464987577325L1106.1256078385468 319.59989850911296Q1111.3494883914987 316.75993170056375 1118.5012296247064 314.7491522813719Q1125.6737005426482 312.73837286218014 1133.4266026331402 312.73837286218014ZM1149.0982442919958 354.98547034994164L1137.3030536783863 355.4207937293542Q1122.3776806699525 356.0219545866384 1116.635557998652 360.2093509028934Q1110.8934353273519 364.37601753441453 1110.8934353273519 371.98381183176906L1110.8934353273519 371.98381183176906Q1110.8934353273519 378.70022968556435 1114.997912904671 381.8511417651226Q1119.1023904819906 384.98132415994695 1125.5285927495106 384.98132415994695L1125.5285927495106 384.98132415994695Q1135.6654085844052 384.98132415994695 1142.3818264382007 379.38430928178417Q1149.0982442919958 373.7872944036215 1149.0982442919958 362.1372115831495L1149.0982442919958 362.1372115831495L1149.0982442919958 354.98547034994164Z " fill="#f4a896" transform="matrix(0.7529500347062907,0,0,0.7529500347062907,0,32.77609946261316)"/></g></svg>